<svg width="74" height="54" viewBox="0 0 74 54" fill="none" xmlns="http://www.w3.org/2000/svg">
<path d="M42.89 36.5784C41.2138 35.5221 39.5375 34.4773 37.8497 33.421C37.1378 32.9732 36.426 32.5369 35.7256 32.0891C35.5763 31.9973 35.4386 31.9514 35.2663 32.0547C35.1171 32.1351 35.0712 32.2728 35.0712 32.4221C35.0712 32.6058 35.1975 32.7091 35.3467 32.801C36.4489 33.4899 37.5512 34.1788 38.6534 34.8677C39.9163 35.6599 41.1793 36.4521 42.4423 37.2443C42.9934 37.5888 43.3378 38.0595 43.3952 38.714C43.4526 39.4717 43.1541 40.0688 42.5112 40.4706C41.8338 40.884 41.1449 40.8495 40.4675 40.4247C37.643 38.6566 34.8301 36.8884 32.0056 35.1203C31.8219 35.0054 31.6382 34.9021 31.4201 35.0284C31.2134 35.1547 31.2478 35.3499 31.2593 35.5451C31.3397 37.0606 31.4201 38.5877 31.4889 40.1032C31.5693 41.6073 31.6382 43.1228 31.7186 44.6269C31.7301 44.7532 31.7301 44.8795 31.7645 44.9943C32.2467 46.9577 34.3938 47.7269 36.0012 46.5214C36.6441 46.0391 37.2641 45.5454 37.8956 45.0517C39.6293 43.6969 41.3745 42.3536 43.0967 40.9873C44.6467 39.7932 44.5319 37.6117 42.89 36.5784Z" fill="white"/>
<path d="M32.8437 34.7759C34.5774 35.8666 36.3111 36.9459 38.0563 38.0366C38.6992 38.4385 39.3422 38.8403 39.9852 39.2422C40.1459 39.3455 40.3066 39.3685 40.4789 39.2766C40.6052 39.2077 40.6511 39.0814 40.6626 38.9552C40.6511 38.6911 40.4674 38.5992 40.2952 38.4959C38.5155 37.3822 36.7244 36.257 34.9448 35.1433C34.3707 34.7759 33.7852 34.42 33.2111 34.064C33.0503 33.9607 32.8896 33.9263 32.7289 34.0411C32.5911 34.1444 32.5337 34.2822 32.5681 34.4429C32.5796 34.6152 32.7174 34.6955 32.8437 34.7759Z" fill="white"/>
<path d="M34.1181 33.7885C36.4833 35.2696 38.8485 36.7507 41.2137 38.2203C41.4777 38.3926 41.7188 38.3696 41.8566 38.1859C42.0059 37.9678 41.937 37.7381 41.65 37.5659C39.2733 36.0733 36.8966 34.5807 34.5085 33.0996C34.4166 33.0422 34.3133 32.9733 34.187 32.9848C33.9688 32.9963 33.8196 33.1455 33.8081 33.3752C33.8081 33.5933 33.9574 33.6966 34.1181 33.7885Z" fill="white"/>
<path d="M72.2367 14.6833C60.9618 10.0677 49.6641 5.4866 38.4007 0.836598C37.2067 0.342895 36.2078 0.411784 35.0482 0.894006C23.8307 5.50956 12.6019 10.0792 1.38445 14.6833C0.890742 14.8899 0.0755571 15.1196 0.0640756 15.5099C0.0525941 15.9347 0.936668 16.2447 1.4763 16.4629C2.18815 16.7499 2.9 17.0484 3.60037 17.347V20.7225H5.5637V18.1622C7.01037 18.7707 8.46852 19.3677 9.92667 19.9533C9.92667 21.9051 9.92667 23.4207 9.91518 24.7066C9.91518 26.004 9.91518 27.0603 9.91518 28.1051V46.9462C9.91518 48.7718 10.6844 50.5285 12.0278 51.7684C13.2333 52.8822 14.8293 53.5022 16.4596 53.5022C16.6319 53.5022 16.7926 53.4907 16.9648 53.4792C30.0996 52.4459 43.4411 52.4459 56.6218 53.4792C58.4474 53.617 60.2615 52.997 61.6048 51.757C62.9367 50.5284 63.7059 48.7718 63.7059 46.9577V28.151C63.7059 27.0373 63.6944 25.7859 63.6715 24.3277C63.66 23.0762 63.637 21.6296 63.637 19.9647C66.5304 18.7936 69.4122 17.5881 72.2941 16.4055C72.7763 16.2103 73.58 16.1988 73.557 15.5329C73.5226 14.9129 72.7304 14.8899 72.2367 14.6833ZM14.0485 14.7636C21.1326 11.9966 28.2167 9.24104 35.3007 6.47401C36.1159 6.15252 36.8852 5.93438 37.7922 6.2903C45.2667 9.24104 52.7641 12.1459 60.25 15.0736C60.4682 15.154 60.6519 15.3147 61.203 15.6707C55.7837 17.7947 50.7204 19.7696 45.657 21.7559C43.1196 22.7433 40.5822 23.7307 38.0563 24.7181C37.3559 24.9936 36.7015 25.2003 35.9207 24.8903C28.607 22.0084 21.2704 19.161 13.9567 16.3022C13.9567 16.2677 13.9567 16.2447 13.9567 16.2103H13.727C13.5319 16.1299 13.3252 16.0496 13.13 15.9807C12.9693 15.9233 12.8544 15.7625 12.7052 15.6477C12.9463 14.9818 13.5663 14.9588 14.0485 14.7636ZM59.63 24.3736C59.6415 25.8088 59.653 27.0603 59.653 28.151V46.9577C59.653 47.6581 59.3659 48.3125 58.8493 48.7947C58.3211 49.277 57.6437 49.5181 56.9204 49.4607C43.533 48.4044 29.9733 48.4044 16.6319 49.4607C15.9315 49.5181 15.2656 49.2885 14.7489 48.8062C14.2207 48.324 13.9337 47.6581 13.9337 46.9462V28.1051C13.9337 27.0603 13.9337 26.004 13.9337 24.7181C13.9337 23.811 13.9337 22.7777 13.9337 21.5607C14.5881 21.8133 15.2426 22.0659 15.897 22.307C17.7341 22.9959 24.2326 25.7284 25.4152 26.2336C28.607 27.5884 31.8448 28.8055 35.0252 30.1947C36.2652 30.7344 37.333 30.6999 38.5615 30.1718C41.7419 28.794 44.9796 27.577 48.1715 26.2222C49.2507 25.7629 56.1511 22.927 57.3107 22.4792C58.0685 22.1807 58.8378 21.8822 59.5956 21.5836C59.6185 22.6055 59.6185 23.5355 59.63 24.3736Z" fill="white"/>
<path d="M6.0345 28.4152C5.88524 27.6918 5.82783 26.9226 5.19635 26.5781C6.33302 26.2337 7.20561 25.12 7.15968 23.9029C7.11376 22.4563 5.7819 21.2622 4.28931 21.3426C2.91153 21.4115 1.71746 22.6629 1.70598 24.0292C1.70598 25.1544 2.4982 26.1533 3.5545 26.5322C2.88857 26.8307 2.78524 27.577 2.63598 28.3348C2.25709 30.3326 1.8782 32.3418 1.49931 34.3396C0.77598 38.0711 0.523387 37.8185 4.41561 37.8185C4.78302 37.8185 5.16191 37.8185 5.52931 37.8185C7.80265 37.807 7.84857 37.7496 7.41228 35.4992C6.97598 33.1341 6.50524 30.7804 6.0345 28.4152Z" fill="white"/>
</svg>
