<svg width="240" height="241" viewBox="0 0 240 241" fill="none" xmlns="http://www.w3.org/2000/svg">
<path d="M36.487 167.513C16.7259 149.43 15.3653 118.752 33.4479 98.991L58.2393 71.8985C94.2181 32.5802 155.258 29.873 194.577 65.8519L216.617 86.0198C228.636 97.0185 229.464 115.679 218.465 127.698L149.118 203.482C130.663 223.65 99.3521 225.039 79.1836 206.583L36.487 167.513Z" stroke="#184AAC"/>
<path d="M46.0923 166.369C26.3312 148.286 24.9706 117.608 43.0532 97.8468L57.9499 81.5674C93.9287 42.2491 154.969 39.5419 194.287 75.5207L207.011 87.1639C219.031 98.1626 219.859 116.823 208.86 128.842L149.408 193.813C130.952 213.981 99.6414 215.37 79.4729 196.914L46.0923 166.369Z" stroke="#184AAC"/>
<path d="M56.3857 165.192C36.6247 147.109 35.2641 116.431 53.3467 96.67L58.3487 91.2037C94.3275 51.8854 155.368 49.1782 194.686 85.157L197.019 87.2918C209.039 98.2905 209.866 116.951 198.868 128.97L149.31 183.127C130.855 203.296 99.544 204.685 79.3755 186.229L56.3857 165.192Z" stroke="#184AAC"/>
<path d="M56.3857 165.192C36.6247 147.109 35.2641 116.431 53.3467 96.67L58.3487 91.2037C94.3275 51.8854 155.368 49.1782 194.686 85.157L197.019 87.2918C209.039 98.2905 209.866 116.951 198.868 128.97L149.31 183.127C130.855 203.296 99.544 204.685 79.3755 186.229L56.3857 165.192Z" stroke="#184AAC"/>
<path d="M64.1087 162.988C45.2051 145.69 43.9035 116.342 61.2016 97.4388L62.7688 95.7261C96.3289 59.051 153.266 56.5258 189.941 90.0858C201.143 100.336 201.914 117.727 191.663 128.929L149.986 174.475C131.531 194.643 100.22 196.032 80.0516 177.576L64.1087 162.988Z" stroke="#184AAC"/>
<path d="M64.1087 162.988C45.2051 145.69 43.9035 116.342 61.2016 97.4388L62.7688 95.7261C96.3289 59.051 153.266 56.5258 189.941 90.0858C201.143 100.336 201.914 117.727 191.663 128.929L149.986 174.475C131.531 194.643 100.22 196.032 80.0516 177.576L64.1087 162.988Z" stroke="#184AAC"/>
<path d="M69.1 159.608C52.0003 143.961 50.8229 117.414 66.4703 100.314L68.8825 97.6781C98.7083 65.0839 149.31 62.8397 181.904 92.6655C191.844 101.761 192.528 117.193 183.433 127.133L148.57 165.231C130.114 185.4 98.8033 186.789 78.6348 168.333L69.1 159.608Z" stroke="#184AAC"/>
<path d="M75.1244 156.958C59.7268 142.868 58.6667 118.963 72.7565 103.566L75.6714 100.38C102.136 71.4592 147.035 69.4679 175.957 95.9327C184.761 103.989 185.367 117.657 177.311 126.461L147.124 159.449C129.687 178.504 100.105 179.816 81.0497 162.38L75.1244 156.958Z" stroke="#184AAC"/>
<path d="M77.6647 153.241C64.7048 141.382 63.8125 121.262 75.6716 108.302C99.3303 82.4475 139.49 80.6861 165.345 104.345C173.206 111.538 173.753 123.747 166.561 131.607L143.502 156.806C127.912 173.843 101.461 175.016 84.4237 159.426L77.6647 153.241Z" stroke="#184AAC"/>
<path d="M81.9704 151.14C70.4731 140.619 69.6815 122.77 80.2022 111.273L80.8947 110.516C101.522 87.9747 136.517 86.4226 159.058 107.05C165.889 113.3 166.359 123.905 160.109 130.736L138.918 153.893C125.342 168.729 102.309 169.751 87.4721 156.175L81.9704 151.14Z" stroke="#184AAC"/>
<path d="M86.3365 150.303C75.9362 140.786 75.2201 124.64 84.7371 114.239L87.3467 111.387C104.928 92.1745 134.755 90.8516 153.968 108.433C159.769 113.741 160.169 122.748 154.86 128.549L133.733 151.637C122.171 164.273 102.554 165.143 89.9189 153.581L86.3365 150.303Z" stroke="#184AAC"/>
<path d="M89.7685 147.402C80.5871 139 79.9549 124.747 88.3565 115.565L91.1046 112.562C106.401 95.8455 132.353 94.6945 149.07 109.991C154.099 114.593 154.445 122.401 149.843 127.431L130.719 148.33C120.667 159.315 103.613 160.071 92.6286 150.019L89.7685 147.402Z" stroke="#184AAC"/>
<path d="M93.858 145.103C85.8954 137.817 85.3471 125.455 92.6334 117.493L95.9796 113.836C108.738 99.8935 130.384 98.9335 144.326 111.692C148.498 115.509 148.785 121.985 144.968 126.157L127.4 145.355C119.027 154.505 104.821 155.135 95.6703 146.762L93.858 145.103Z" stroke="#184AAC"/>
<path d="M97.5062 142.401C91.0062 136.453 90.5587 126.362 96.5065 119.862L99.6512 116.425C109.871 105.256 127.211 104.487 138.38 114.708C141.693 117.74 141.921 122.884 138.889 126.198L124.082 142.379C117.387 149.696 106.029 150.199 98.7122 143.504L97.5062 142.401Z" stroke="#184AAC"/>
<path d="M97.5062 142.401C91.0062 136.453 90.5587 126.362 96.5065 119.862L99.6512 116.425C109.871 105.256 127.211 104.487 138.38 114.708C141.693 117.74 141.921 122.884 138.889 126.198L124.082 142.379C117.387 149.696 106.029 150.199 98.7122 143.504L97.5062 142.401Z" stroke="#184AAC"/>
</svg>
