<svg width="246" height="84" viewBox="0 0 246 84" fill="none" xmlns="http://www.w3.org/2000/svg">
<circle cx="2.6648" cy="2.50511" r="2.5" transform="rotate(0.117337 2.6648 2.50511)" fill="#184AAC"/>
<circle cx="15.6648" cy="2.53173" r="2.5" transform="rotate(0.117337 15.6648 2.53173)" fill="#184AAC"/>
<circle cx="28.6648" cy="2.55837" r="2.5" transform="rotate(0.117337 28.6648 2.55837)" fill="#184AAC"/>
<circle cx="41.6647" cy="2.58498" r="2.5" transform="rotate(0.117337 41.6647 2.58498)" fill="#184AAC"/>
<circle cx="54.6647" cy="2.61162" r="2.5" transform="rotate(0.117337 54.6647 2.61162)" fill="#184AAC"/>
<circle cx="67.6647" cy="2.63823" r="2.5" transform="rotate(0.117337 67.6647 2.63823)" fill="#184AAC"/>
<circle cx="80.6647" cy="2.66484" r="2.5" transform="rotate(0.117337 80.6647 2.66484)" fill="#184AAC"/>
<circle cx="93.6646" cy="2.69149" r="2.5" transform="rotate(0.117337 93.6646 2.69149)" fill="#184AAC"/>
<circle cx="106.665" cy="2.7181" r="2.5" transform="rotate(0.117337 106.665 2.7181)" fill="#184AAC"/>
<circle cx="119.665" cy="2.74471" r="2.5" transform="rotate(0.117337 119.665 2.74471)" fill="#184AAC"/>
<circle cx="132.665" cy="2.77135" r="2.5" transform="rotate(0.117337 132.665 2.77135)" fill="#184AAC"/>
<circle cx="145.665" cy="2.79796" r="2.5" transform="rotate(0.117337 145.665 2.79796)" fill="#184AAC"/>
<circle cx="158.664" cy="2.8246" r="2.5" transform="rotate(0.117337 158.664 2.8246)" fill="#184AAC"/>
<circle cx="171.664" cy="2.85121" r="2.5" transform="rotate(0.117337 171.664 2.85121)" fill="#184AAC"/>
<circle cx="184.664" cy="2.87783" r="2.5" transform="rotate(0.117337 184.664 2.87783)" fill="#184AAC"/>
<circle cx="197.664" cy="2.90447" r="2.5" transform="rotate(0.117337 197.664 2.90447)" fill="#184AAC"/>
<circle cx="210.664" cy="2.93108" r="2.5" transform="rotate(0.117337 210.664 2.93108)" fill="#184AAC"/>
<circle cx="223.664" cy="2.95769" r="2.5" transform="rotate(0.117337 223.664 2.95769)" fill="#184AAC"/>
<circle cx="236.664" cy="2.98433" r="2.5" transform="rotate(0.117337 236.664 2.98433)" fill="#184AAC"/>
<circle cx="2.63819" cy="15.5051" r="2.5" transform="rotate(0.117337 2.63819 15.5051)" fill="#184AAC"/>
<circle cx="15.6382" cy="15.5317" r="2.5" transform="rotate(0.117337 15.6382 15.5317)" fill="#184AAC"/>
<circle cx="28.6381" cy="15.5583" r="2.5" transform="rotate(0.117337 28.6381 15.5583)" fill="#184AAC"/>
<circle cx="41.6381" cy="15.5849" r="2.5" transform="rotate(0.117337 41.6381 15.5849)" fill="#184AAC"/>
<circle cx="54.6381" cy="15.6116" r="2.5" transform="rotate(0.117337 54.6381 15.6116)" fill="#184AAC"/>
<circle cx="67.6381" cy="15.6382" r="2.5" transform="rotate(0.117337 67.6381 15.6382)" fill="#184AAC"/>
<circle cx="80.6381" cy="15.6648" r="2.5" transform="rotate(0.117337 80.6381 15.6648)" fill="#184AAC"/>
<circle cx="93.6379" cy="15.6915" r="2.5" transform="rotate(0.117337 93.6379 15.6915)" fill="#184AAC"/>
<circle cx="106.638" cy="15.7181" r="2.5" transform="rotate(0.117337 106.638 15.7181)" fill="#184AAC"/>
<circle cx="119.638" cy="15.7447" r="2.5" transform="rotate(0.117337 119.638 15.7447)" fill="#184AAC"/>
<circle cx="132.638" cy="15.7713" r="2.5" transform="rotate(0.117337 132.638 15.7713)" fill="#184AAC"/>
<circle cx="145.638" cy="15.7979" r="2.5" transform="rotate(0.117337 145.638 15.7979)" fill="#184AAC"/>
<circle cx="158.638" cy="15.8246" r="2.5" transform="rotate(0.117337 158.638 15.8246)" fill="#184AAC"/>
<circle cx="171.638" cy="15.8512" r="2.5" transform="rotate(0.117337 171.638 15.8512)" fill="#184AAC"/>
<circle cx="184.638" cy="15.8778" r="2.5" transform="rotate(0.117337 184.638 15.8778)" fill="#184AAC"/>
<circle cx="197.638" cy="15.9044" r="2.5" transform="rotate(0.117337 197.638 15.9044)" fill="#184AAC"/>
<circle cx="210.638" cy="15.931" r="2.5" transform="rotate(0.117337 210.638 15.931)" fill="#184AAC"/>
<circle cx="223.638" cy="15.9577" r="2.5" transform="rotate(0.117337 223.638 15.9577)" fill="#184AAC"/>
<circle cx="236.638" cy="15.9843" r="2.5" transform="rotate(0.117337 236.638 15.9843)" fill="#184AAC"/>
<circle cx="2.61157" cy="28.5051" r="2.5" transform="rotate(0.117337 2.61157 28.5051)" fill="#184AAC"/>
<circle cx="15.6116" cy="28.5317" r="2.5" transform="rotate(0.117337 15.6116 28.5317)" fill="#184AAC"/>
<circle cx="28.6115" cy="28.5583" r="2.5" transform="rotate(0.117337 28.6115 28.5583)" fill="#184AAC"/>
<circle cx="41.6115" cy="28.5849" r="2.5" transform="rotate(0.117337 41.6115 28.5849)" fill="#184AAC"/>
<circle cx="54.6115" cy="28.6116" r="2.5" transform="rotate(0.117337 54.6115 28.6116)" fill="#184AAC"/>
<circle cx="67.6115" cy="28.6382" r="2.5" transform="rotate(0.117337 67.6115 28.6382)" fill="#184AAC"/>
<circle cx="80.6113" cy="28.6648" r="2.5" transform="rotate(0.117337 80.6113 28.6648)" fill="#184AAC"/>
<circle cx="93.6113" cy="28.6914" r="2.5" transform="rotate(0.117337 93.6113 28.6914)" fill="#184AAC"/>
<circle cx="106.611" cy="28.718" r="2.5" transform="rotate(0.117337 106.611 28.718)" fill="#184AAC"/>
<circle cx="119.611" cy="28.7447" r="2.5" transform="rotate(0.117337 119.611 28.7447)" fill="#184AAC"/>
<circle cx="132.611" cy="28.7713" r="2.5" transform="rotate(0.117337 132.611 28.7713)" fill="#184AAC"/>
<circle cx="145.611" cy="28.7979" r="2.5" transform="rotate(0.117337 145.611 28.7979)" fill="#184AAC"/>
<circle cx="158.611" cy="28.8245" r="2.5" transform="rotate(0.117337 158.611 28.8245)" fill="#184AAC"/>
<circle cx="171.611" cy="28.8512" r="2.5" transform="rotate(0.117337 171.611 28.8512)" fill="#184AAC"/>
<circle cx="184.611" cy="28.8778" r="2.5" transform="rotate(0.117337 184.611 28.8778)" fill="#184AAC"/>
<circle cx="197.611" cy="28.9044" r="2.5" transform="rotate(0.117337 197.611 28.9044)" fill="#184AAC"/>
<circle cx="210.611" cy="28.931" r="2.5" transform="rotate(0.117337 210.611 28.931)" fill="#184AAC"/>
<circle cx="223.611" cy="28.9577" r="2.5" transform="rotate(0.117337 223.611 28.9577)" fill="#184AAC"/>
<circle cx="236.611" cy="28.9843" r="2.5" transform="rotate(0.117337 236.611 28.9843)" fill="#184AAC"/>
<circle cx="2.58496" cy="41.505" r="2.5" transform="rotate(0.117337 2.58496 41.505)" fill="#184AAC"/>
<circle cx="15.5848" cy="41.5317" r="2.5" transform="rotate(0.117337 15.5848 41.5317)" fill="#184AAC"/>
<circle cx="28.5848" cy="41.5583" r="2.5" transform="rotate(0.117337 28.5848 41.5583)" fill="#184AAC"/>
<circle cx="41.5848" cy="41.5849" r="2.5" transform="rotate(0.117337 41.5848 41.5849)" fill="#184AAC"/>
<circle cx="54.5848" cy="41.6115" r="2.5" transform="rotate(0.117337 54.5848 41.6115)" fill="#184AAC"/>
<circle cx="67.5848" cy="41.6381" r="2.5" transform="rotate(0.117337 67.5848 41.6381)" fill="#184AAC"/>
<circle cx="80.5847" cy="41.6648" r="2.5" transform="rotate(0.117337 80.5847 41.6648)" fill="#184AAC"/>
<circle cx="93.5847" cy="41.6914" r="2.5" transform="rotate(0.117337 93.5847 41.6914)" fill="#184AAC"/>
<circle cx="106.585" cy="41.718" r="2.5" transform="rotate(0.117337 106.585 41.718)" fill="#184AAC"/>
<circle cx="119.585" cy="41.7446" r="2.5" transform="rotate(0.117337 119.585 41.7446)" fill="#184AAC"/>
<circle cx="132.585" cy="41.7713" r="2.5" transform="rotate(0.117337 132.585 41.7713)" fill="#184AAC"/>
<circle cx="145.585" cy="41.7979" r="2.5" transform="rotate(0.117337 145.585 41.7979)" fill="#184AAC"/>
<circle cx="158.585" cy="41.8245" r="2.5" transform="rotate(0.117337 158.585 41.8245)" fill="#184AAC"/>
<circle cx="171.585" cy="41.8511" r="2.5" transform="rotate(0.117337 171.585 41.8511)" fill="#184AAC"/>
<circle cx="184.585" cy="41.8778" r="2.5" transform="rotate(0.117337 184.585 41.8778)" fill="#184AAC"/>
<circle cx="197.584" cy="41.9044" r="2.5" transform="rotate(0.117337 197.584 41.9044)" fill="#184AAC"/>
<circle cx="210.584" cy="41.931" r="2.5" transform="rotate(0.117337 210.584 41.931)" fill="#184AAC"/>
<circle cx="223.584" cy="41.9576" r="2.5" transform="rotate(0.117337 223.584 41.9576)" fill="#184AAC"/>
<circle cx="236.584" cy="41.9842" r="2.5" transform="rotate(0.117337 236.584 41.9842)" fill="#184AAC"/>
<circle cx="2.55835" cy="54.505" r="2.5" transform="rotate(0.117337 2.55835 54.505)" fill="#184AAC"/>
<circle cx="15.5582" cy="54.5316" r="2.5" transform="rotate(0.117337 15.5582 54.5316)" fill="#184AAC"/>
<circle cx="28.5582" cy="54.5582" r="2.5" transform="rotate(0.117337 28.5582 54.5582)" fill="#184AAC"/>
<circle cx="41.5582" cy="54.5849" r="2.5" transform="rotate(0.117337 41.5582 54.5849)" fill="#184AAC"/>
<circle cx="54.5582" cy="54.6115" r="2.5" transform="rotate(0.117337 54.5582 54.6115)" fill="#184AAC"/>
<circle cx="67.5582" cy="54.6381" r="2.5" transform="rotate(0.117337 67.5582 54.6381)" fill="#184AAC"/>
<circle cx="80.5581" cy="54.6648" r="2.5" transform="rotate(0.117337 80.5581 54.6648)" fill="#184AAC"/>
<circle cx="93.5581" cy="54.6914" r="2.5" transform="rotate(0.117337 93.5581 54.6914)" fill="#184AAC"/>
<circle cx="106.558" cy="54.718" r="2.5" transform="rotate(0.117337 106.558 54.718)" fill="#184AAC"/>
<circle cx="119.558" cy="54.7446" r="2.5" transform="rotate(0.117337 119.558 54.7446)" fill="#184AAC"/>
<circle cx="132.558" cy="54.7712" r="2.5" transform="rotate(0.117337 132.558 54.7712)" fill="#184AAC"/>
<circle cx="145.558" cy="54.7979" r="2.5" transform="rotate(0.117337 145.558 54.7979)" fill="#184AAC"/>
<circle cx="158.558" cy="54.8245" r="2.5" transform="rotate(0.117337 158.558 54.8245)" fill="#184AAC"/>
<circle cx="171.558" cy="54.8511" r="2.5" transform="rotate(0.117337 171.558 54.8511)" fill="#184AAC"/>
<circle cx="184.558" cy="54.8777" r="2.5" transform="rotate(0.117337 184.558 54.8777)" fill="#184AAC"/>
<circle cx="197.558" cy="54.9043" r="2.5" transform="rotate(0.117337 197.558 54.9043)" fill="#184AAC"/>
<circle cx="210.558" cy="54.931" r="2.5" transform="rotate(0.117337 210.558 54.931)" fill="#184AAC"/>
<circle cx="223.558" cy="54.9576" r="2.5" transform="rotate(0.117337 223.558 54.9576)" fill="#184AAC"/>
<circle cx="236.558" cy="54.9842" r="2.5" transform="rotate(0.117337 236.558 54.9842)" fill="#184AAC"/>
<circle cx="2.53174" cy="67.505" r="2.5" transform="rotate(0.117337 2.53174 67.505)" fill="#184AAC"/>
<circle cx="15.5316" cy="67.5316" r="2.5" transform="rotate(0.117337 15.5316 67.5316)" fill="#184AAC"/>
<circle cx="28.5316" cy="67.5582" r="2.5" transform="rotate(0.117337 28.5316 67.5582)" fill="#184AAC"/>
<circle cx="41.5316" cy="67.5849" r="2.5" transform="rotate(0.117337 41.5316 67.5849)" fill="#184AAC"/>
<circle cx="54.5316" cy="67.6115" r="2.5" transform="rotate(0.117337 54.5316 67.6115)" fill="#184AAC"/>
<circle cx="67.5315" cy="67.6381" r="2.5" transform="rotate(0.117337 67.5315 67.6381)" fill="#184AAC"/>
<circle cx="80.5315" cy="67.6647" r="2.5" transform="rotate(0.117337 80.5315 67.6647)" fill="#184AAC"/>
<circle cx="93.5315" cy="67.6913" r="2.5" transform="rotate(0.117337 93.5315 67.6913)" fill="#184AAC"/>
<circle cx="106.531" cy="67.718" r="2.5" transform="rotate(0.117337 106.531 67.718)" fill="#184AAC"/>
<circle cx="119.531" cy="67.7446" r="2.5" transform="rotate(0.117337 119.531 67.7446)" fill="#184AAC"/>
<circle cx="132.531" cy="67.7712" r="2.5" transform="rotate(0.117337 132.531 67.7712)" fill="#184AAC"/>
<circle cx="145.531" cy="67.7978" r="2.5" transform="rotate(0.117337 145.531 67.7978)" fill="#184AAC"/>
<circle cx="158.531" cy="67.8244" r="2.5" transform="rotate(0.117337 158.531 67.8244)" fill="#184AAC"/>
<circle cx="171.531" cy="67.8511" r="2.5" transform="rotate(0.117337 171.531 67.8511)" fill="#184AAC"/>
<circle cx="184.531" cy="67.8777" r="2.5" transform="rotate(0.117337 184.531 67.8777)" fill="#184AAC"/>
<circle cx="197.531" cy="67.9043" r="2.5" transform="rotate(0.117337 197.531 67.9043)" fill="#184AAC"/>
<circle cx="210.531" cy="67.931" r="2.5" transform="rotate(0.117337 210.531 67.931)" fill="#184AAC"/>
<circle cx="223.531" cy="67.9576" r="2.5" transform="rotate(0.117337 223.531 67.9576)" fill="#184AAC"/>
<circle cx="236.531" cy="67.9842" r="2.5" transform="rotate(0.117337 236.531 67.9842)" fill="#184AAC"/>
<circle cx="2.50501" cy="80.505" r="2.5" transform="rotate(0.117337 2.50501 80.505)" fill="#184AAC"/>
<circle cx="15.505" cy="80.5316" r="2.5" transform="rotate(0.117337 15.505 80.5316)" fill="#184AAC"/>
<circle cx="28.505" cy="80.5582" r="2.5" transform="rotate(0.117337 28.505 80.5582)" fill="#184AAC"/>
<circle cx="41.505" cy="80.5848" r="2.5" transform="rotate(0.117337 41.505 80.5848)" fill="#184AAC"/>
<circle cx="54.505" cy="80.6114" r="2.5" transform="rotate(0.117337 54.505 80.6114)" fill="#184AAC"/>
<circle cx="67.5049" cy="80.6381" r="2.5" transform="rotate(0.117337 67.5049 80.6381)" fill="#184AAC"/>
<circle cx="80.5049" cy="80.6647" r="2.5" transform="rotate(0.117337 80.5049 80.6647)" fill="#184AAC"/>
<circle cx="93.5049" cy="80.6913" r="2.5" transform="rotate(0.117337 93.5049 80.6913)" fill="#184AAC"/>
<circle cx="106.505" cy="80.7179" r="2.5" transform="rotate(0.117337 106.505 80.7179)" fill="#184AAC"/>
<circle cx="119.505" cy="80.7446" r="2.5" transform="rotate(0.117337 119.505 80.7446)" fill="#184AAC"/>
<circle cx="132.505" cy="80.7712" r="2.5" transform="rotate(0.117337 132.505 80.7712)" fill="#184AAC"/>
<circle cx="145.505" cy="80.7978" r="2.5" transform="rotate(0.117337 145.505 80.7978)" fill="#184AAC"/>
<circle cx="158.505" cy="80.8244" r="2.5" transform="rotate(0.117337 158.505 80.8244)" fill="#184AAC"/>
<circle cx="171.505" cy="80.8511" r="2.5" transform="rotate(0.117337 171.505 80.8511)" fill="#184AAC"/>
<circle cx="184.505" cy="80.8777" r="2.5" transform="rotate(0.117337 184.505 80.8777)" fill="#184AAC"/>
<circle cx="197.505" cy="80.9043" r="2.5" transform="rotate(0.117337 197.505 80.9043)" fill="#184AAC"/>
<circle cx="210.505" cy="80.9309" r="2.5" transform="rotate(0.117337 210.505 80.9309)" fill="#184AAC"/>
<circle cx="223.505" cy="80.9575" r="2.5" transform="rotate(0.117337 223.505 80.9575)" fill="#184AAC"/>
<circle cx="236.505" cy="80.9841" r="2.5" transform="rotate(0.117337 236.505 80.9841)" fill="#184AAC"/>
</svg>
